<svg xmlns="http://www.w3.org/2000/svg" width="23.014" height="19.168" viewBox="0 0 23.014 19.168">
  <g id="ic_home_selected" transform="translate(0.025 -2.025)">
    <path id="home" d="M22.646,9.966l-9.98-7.581a2.178,2.178,0,0,0-2.4,0L.383,9.966A.889.889,0,0,0,.959,11.6h.96v5.854a3.831,3.831,0,0,0,3.838,3.743H7.676a.907.907,0,0,0,.96-.96v-4.7a2.01,2.01,0,0,1,1.919-2.015h1.919a2.01,2.01,0,0,1,1.919,2.015v4.7a.962.962,0,0,0,.96.96h1.919a3.831,3.831,0,0,0,3.838-3.743V11.6h.96A.916.916,0,0,0,22.646,9.966Z" transform="translate(0)" fill="#fff"/>
  </g>
</svg>
