<svg xmlns="http://www.w3.org/2000/svg" width="24.014" height="20.168" viewBox="0 0 24.014 20.168">
  <g id="ic_home" transform="translate(0.525 -1.525)">
    <path id="home" d="M11.5,1.525a2.483,2.483,0,0,1,1.454.453l.012.009,10,7.6a1.432,1.432,0,0,1,.428,1.595,1.4,1.4,0,0,1-1.329.916h-.46v5.354a4.166,4.166,0,0,1-1.277,2.984,4.346,4.346,0,0,1-3.061,1.259H15.353a1.461,1.461,0,0,1-1.46-1.46v-4.7a1.508,1.508,0,0,0-1.419-1.515H10.555a1.508,1.508,0,0,0-1.419,1.515v4.7a1.412,1.412,0,0,1-1.46,1.46H5.757A4.346,4.346,0,0,1,2.7,20.434a4.166,4.166,0,0,1-1.277-2.984V12.1H.959a1.444,1.444,0,0,1-1.416-.958A1.4,1.4,0,0,1,.08,9.568L10,1.961A2.831,2.831,0,0,1,11.5,1.525Zm.868,1.263a1.491,1.491,0,0,0-.868-.263,1.83,1.83,0,0,0-.951.272L.683,10.366a.409.409,0,0,0-.191.457.453.453,0,0,0,.467.275h1.46v6.354a3.336,3.336,0,0,0,3.338,3.243H7.676a.411.411,0,0,0,.46-.46v-4.7a2.5,2.5,0,0,1,2.419-2.515h1.919a2.5,2.5,0,0,1,2.419,2.515v4.7a.462.462,0,0,0,.46.46h1.919a3.336,3.336,0,0,0,3.338-3.243V11.1h1.46a.4.4,0,0,0,.391-.263.429.429,0,0,0-.131-.48Z" transform="translate(0)" fill="#fff"/>
  </g>
</svg>
