<svg xmlns="http://www.w3.org/2000/svg" width="19" height="19" viewBox="0 0 19 19">
  <g id="ic_library_selected" transform="translate(9723 -2725)">
    <path id="Union_4" data-name="Union 4" d="M-5253-281.5a4.5,4.5,0,0,1,4.5-4.5,4.5,4.5,0,0,1,4.5,4.5,4.5,4.5,0,0,1-4.5,4.5A4.5,4.5,0,0,1-5253-281.5Zm-8,4.5a2,2,0,0,1-2-2v-5a2,2,0,0,1,2-2h5a2,2,0,0,1,2,2v5a2,2,0,0,1-2,2Zm10-10a2,2,0,0,1-2-2v-5a2,2,0,0,1,2-2h5a2,2,0,0,1,2,2v5a2,2,0,0,1-2,2Zm-10,0a2,2,0,0,1-2-2v-5a2,2,0,0,1,2-2h5a2,2,0,0,1,2,2v5a2,2,0,0,1-2,2Z" transform="translate(-4460 3021)" fill="#fff"/>
  </g>
</svg>
