<svg xmlns="http://www.w3.org/2000/svg" width="19" height="19" viewBox="0 0 19 19">
  <g id="ic_library" transform="translate(9723 -2725)">
    <path id="Rectangle_6677" data-name="Rectangle 6677" d="M2,1A1,1,0,0,0,1,2V7A1,1,0,0,0,2,8H7A1,1,0,0,0,8,7V2A1,1,0,0,0,7,1H2M2,0H7A2,2,0,0,1,9,2V7A2,2,0,0,1,7,9H2A2,2,0,0,1,0,7V2A2,2,0,0,1,2,0Z" transform="translate(-9723 2725)" fill="#fff"/>
    <path id="Rectangle_6678" data-name="Rectangle 6678" d="M2,1A1,1,0,0,0,1,2V7A1,1,0,0,0,2,8H7A1,1,0,0,0,8,7V2A1,1,0,0,0,7,1H2M2,0H7A2,2,0,0,1,9,2V7A2,2,0,0,1,7,9H2A2,2,0,0,1,0,7V2A2,2,0,0,1,2,0Z" transform="translate(-9723 2735)" fill="#fff"/>
    <path id="Rectangle_6679" data-name="Rectangle 6679" d="M2,1A1,1,0,0,0,1,2V7A1,1,0,0,0,2,8H7A1,1,0,0,0,8,7V2A1,1,0,0,0,7,1H2M2,0H7A2,2,0,0,1,9,2V7A2,2,0,0,1,7,9H2A2,2,0,0,1,0,7V2A2,2,0,0,1,2,0Z" transform="translate(-9713 2725)" fill="#fff"/>
    <path id="Rectangle_6680" data-name="Rectangle 6680" d="M4.5,1A3.5,3.5,0,1,0,8,4.5,3.5,3.5,0,0,0,4.5,1m0-1A4.5,4.5,0,1,1,0,4.5,4.5,4.5,0,0,1,4.5,0Z" transform="translate(-9713 2735)" fill="#fff"/>
  </g>
</svg>
