<svg xmlns="http://www.w3.org/2000/svg" width="19.521" height="19.52" viewBox="0 0 19.521 19.52">
  <g id="ic_profile" transform="translate(0.5 0.499)">
    <path id="Path_35299" data-name="Path 35299" d="M9.26-.5A9.76,9.76,0,1,1-.5,9.261,9.771,9.771,0,0,1,9.26-.5Zm0,18.52A8.76,8.76,0,1,0,.5,9.261,8.77,8.77,0,0,0,9.26,18.021Zm0-15.751A3.563,3.563,0,1,1,5.7,5.833,3.567,3.567,0,0,1,9.26,2.27Zm0,6.126A2.563,2.563,0,1,0,6.7,5.833,2.566,2.566,0,0,0,9.26,8.4ZM7.479,9.887h3.564a3.584,3.584,0,0,1,3.6,3.588,1.8,1.8,0,0,1-.633,1.372,7.317,7.317,0,0,1-9.5,0,1.8,1.8,0,0,1-.633-1.372A3.6,3.6,0,0,1,7.479,9.887ZM9.258,15.6a6.321,6.321,0,0,0,4.1-1.513.8.8,0,0,0,.282-.611,2.6,2.6,0,0,0-2.6-2.588H7.479a2.6,2.6,0,0,0-2.6,2.588.8.8,0,0,0,.282.612A6.323,6.323,0,0,0,9.258,15.6Z" fill="#fff"/>
  </g>
</svg>
