<svg xmlns="http://www.w3.org/2000/svg" width="18.521" height="18.52" viewBox="0 0 18.521 18.52">
  <g id="ic_profile_selected" transform="translate(0 -0.001)">
    <path id="Path_35299" data-name="Path 35299" d="M9.26,0a9.26,9.26,0,1,0,9.26,9.26A9.26,9.26,0,0,0,9.26,0Zm0,2.769A3.063,3.063,0,1,1,6.2,5.833,3.063,3.063,0,0,1,9.26,2.77Zm0,13.33a6.8,6.8,0,0,1-4.425-1.632,1.305,1.305,0,0,1-.458-.992,3.089,3.089,0,0,1,3.1-3.088h3.564a3.084,3.084,0,0,1,3.1,3.088,1.3,1.3,0,0,1-.458.992A6.794,6.794,0,0,1,9.258,16.1Z" fill="#fff"/>
  </g>
</svg>
